<svg width="2911" height="2834" viewBox="0 0 2911 2834" fill="none" xmlns="http://www.w3.org/2000/svg">
<g clip-path="url(#clip0_372_259)">
<rect width="2911" height="2834" fill="#07225E"/>
<circle cx="620.5" cy="518.5" r="53.5" fill="#407BFF"/>
<circle cx="420.5" cy="1029.5" r="53.5" fill="#407BFF"/>
<circle cx="567.5" cy="1801.5" r="53.5" fill="#407BFF"/>
<circle cx="513.5" cy="2333.5" r="53.5" fill="#407BFF"/>
<circle cx="2092.5" cy="829.5" r="53.5" fill="#407BFF"/>
<path d="M2711 1474.5C2711 2167.89 2148.89 2730 1455.5 2730C762.106 2730 200 2167.89 200 1474.5C200 781.106 762.106 219 1455.5 219C2148.89 219 2711 781.106 2711 1474.5ZM214.898 1474.5C214.898 2159.67 770.335 2715.1 1455.5 2715.1C2140.67 2715.1 2696.1 2159.67 2696.1 1474.5C2696.1 789.335 2140.67 233.898 1455.5 233.898C770.335 233.898 214.898 789.335 214.898 1474.5Z" fill="white"/>
<path d="M2541 1474C2541 2073.78 2054.78 2560 1455 2560C855.219 2560 369 2073.78 369 1474C369 874.219 855.219 388 1455 388C2054.78 388 2541 874.219 2541 1474ZM381.887 1474C381.887 2066.66 862.336 2547.11 1455 2547.11C2047.66 2547.11 2528.11 2066.66 2528.11 1474C2528.11 881.336 2047.66 400.887 1455 400.887C862.336 400.887 381.887 881.336 381.887 1474Z" fill="white"/>
<path d="M2411 1474.5C2411 1990.61 1983.21 2409 1455.5 2409C927.792 2409 500 1990.61 500 1474.5C500 958.39 927.792 540 1455.5 540C1983.21 540 2411 958.39 2411 1474.5ZM511.338 1474.5C511.338 1984.49 934.054 2397.91 1455.5 2397.91C1976.95 2397.91 2399.66 1984.49 2399.66 1474.5C2399.66 964.514 1976.95 551.089 1455.5 551.089C934.054 551.089 511.338 964.514 511.338 1474.5Z" fill="white"/>
<rect width="2911" height="2910" fill="#091736" fill-opacity="0.92"/>
</g>
<defs>
<clipPath id="clip0_372_259">
<rect width="2911" height="2834" fill="white"/>
</clipPath>
</defs>
</svg>
